<?xml version="1.0" standalone="no"?> <!DOCTYPE svg PUBLIC "-//W3C//DTD SVG 1.0//EN" "http://www.w3.org/TR/2001/REC-SVG-20010904/DTD/svg10.dtd" > <svg xmlns="http://www.w3.org/2000/svg" width="100%" height="100%">
<defs >
<font id="12avenir95black09173" horiz-adv-x="477" ><font-face
    font-family="Avenir"
    units-per-em="1000"
    panose-1="2 0 10 3 6 0 0 2 0 3"
    ascent="0"
    descent="0"
    alphabetic="0" />
<missing-glyph horiz-adv-x="296" />
<glyph unicode=" " glyph-name="space" horiz-adv-x="296" />
<glyph unicode="!" glyph-name="exclam" horiz-adv-x="444" d="M297 708H147V234H297V708ZM130 86Q130 67 137 50T156 21T186 1T222 -6Q241 -6 258 1T287 20T307 50T314 86Q314 105 307 122T288 151T258 171T222 178Q203 178 186 171T157 152T137 122T130 86Z" />
<glyph unicode="&quot;" glyph-name="quotedbl" horiz-adv-x="520" d="M313 426H439V708H313V426ZM81 426H207V708H81V426Z" />
<glyph unicode="#" glyph-name="numbersign" horiz-adv-x="592" d="M101 0H198L226 201H325L297 0H394L422 201H518V291H434L451 417H547V507H463L491 708H394L366 507H267L295 708H198L170 507H74V417H158L141 291H45V201H129L101 0ZM337 291H238L255 417H354L337 291Z" />
<glyph unicode="$" glyph-name="dollar" horiz-adv-x="592" d="M328 790H262V720Q218 715 177 698T104 654T53 589T34 504Q34 428 73 385T189 317L262 295V126Q221 129 184 142T121 188L15 69Q65 24 130 6T262 -12V-82H328V-12Q377 -7 421 9T498 53T550 121T569
214Q569 284 530 329T424 395L328 423V582Q360 580 391 571T446 540L542 657Q498 692 440 706T328 720V790ZM262 439Q256 441 244 444T220 454T199 475T190 511Q190 543 212 558T262 579V439ZM328 278L347 271Q360 266 372 261T393 248T407 229T413 202Q413 185
406 173T386 151T359 137T328 128V278Z" />
<glyph unicode="%" glyph-name="percent" horiz-adv-x="907" d="M508 187Q508 146 523 110T565 46T628 4T705 -12Q746 -12 782 3T844 46T886 109T902 187Q902 228 887 264T845 327T782 369T705 385Q664 385 628 370T566 327T524 264T508 187ZM800 187Q800 146
773 118T705 90Q665 90 638 118T610 187Q610 227 637 255T705 283Q745 283 772 255T800 187ZM5 522Q5 481 20 445T62 382T125 340T202 324Q243 324 279 339T341 382T383 445T399 522Q399 563 384 599T342 662T279 704T202 720Q161 720 125 705T63 662T21 599T5
522ZM297 522Q297 482 270 454T202 426Q162 426 135 454T107 522Q107 562 134 590T202 618Q242 618 269 590T297 522ZM210 11L286 -32L699 693L615 740L210 11Z" />
<glyph unicode="&amp;" glyph-name="ampersand" horiz-adv-x="759" d="M744 365H570L501 271L410 368Q437 382 460 400T502 442T530 493T541 552Q541 597 524 629T479 683T413 715T335 726Q293 726 253 716T182 684T133 628T114 546Q114 520 119 499T135 459T160
423T192 387Q160 376 133 358T86 314T54 259T42 194Q42 141 63 101T119 35T200 -5T293 -18Q356 -18 406 2T501 67L560 0H753L595 167L744 365ZM333 606Q362 606 382 590T403 542Q403 527 395 514T375 489T349 468T323 451Q314 459 304 469T285 490T270 514T264
540Q264 570 284 588T333 606ZM410 166Q385 144 360 129T299 114Q281 114 264 120T233 138T212 165T204 201Q204 221 211 236T229 262T255 283T285 302L410 166Z" />
<glyph unicode="&apos;" glyph-name="quotesingle" horiz-adv-x="296" d="M85 426H211V708H85V426Z" />
<glyph unicode="(" glyph-name="parenleft" horiz-adv-x="314" d="M190 732L188 728Q119 625 82 519T44 288Q44 164 81 58T188 -152L190 -156L293 -96Q263 -48 239 -4T199 85T173 180T164 288Q164 346 173 395T198 490T239 580T293 672L190 732Z" />
<glyph unicode=")" glyph-name="parenright" horiz-adv-x="314" d="M124 -156L126 -152Q195 -49 232 57T270 288Q270 412 233 518T126 728L124 732L21 672Q51 624 75 580T115 491T141 396T150 288Q150 230 141 181T116 86T75 -4T21 -96L124 -156Z" />
<glyph unicode="*" glyph-name="asterisk" horiz-adv-x="482" d="M293 708H191V570L60 617L28 522L161 476L77 367L158 306L239 416L323 301L406 362L323 476L454 518L424 613L293 570V708Z" />
<glyph unicode="+" glyph-name="plus" horiz-adv-x="666" d="M59 240H270V29H396V240H607V366H396V577H270V366H59V240Z" />
<glyph unicode="," glyph-name="comma" horiz-adv-x="296" d="M17 -120H145L235 162H91L17 -120Z" />
<glyph unicode="-" glyph-name="hyphen" horiz-adv-x="296" d="M271 309H25V189H271V309Z" />
<glyph unicode="." glyph-name="period" horiz-adv-x="296" d="M56 86Q56 67 63 50T82 21T112 1T148 -6Q167 -6 184 1T213 20T233 50T240 86Q240 105 233 122T214 151T184 171T148 178Q129 178 112 171T83 152T63 122T56 86Z" />
<glyph unicode="/" glyph-name="slash" horiz-adv-x="407" d="M-3 -18L110 -53L410 726L296 761L-3 -18Z" />
<glyph unicode="0" glyph-name="zero" horiz-adv-x="592" d="M33 354Q33 291 44 226T85 108T166 22T296 -12Q375 -12 426 21T506 108T547 226T559 354Q559 417 548 482T507 600T426 686T296 720Q217 720 166 687T86 600T45 482T33 354ZM183 354Q183 382 185 421T199
496T232 557T296 582Q336 582 359 557T393 496T406 421T409 354Q409 326 407 287T393 212T359 151T296 126Q255 126 233 151T199 212T186 287T183 354Z" />
<glyph unicode="1" glyph-name="one" horiz-adv-x="592" d="M288 0H432V708H292L61 513L146 415L288 540V0Z" />
<glyph unicode="2" glyph-name="two" horiz-adv-x="592" d="M49 0H543V132H229L444 317Q464 335 481 354T510 395T530 445T537 507Q537 560 520 600T471 666T398 706T308 720Q256 720 212 707T134 666T81 599T58 503L208 492Q211 530 234 556T300 582Q335 582
361 562T387 505Q387 473 366 449T324 406L49 159V0Z" />
<glyph unicode="3" glyph-name="three" horiz-adv-x="592" d="M216 299H251Q276 299 301 298T346 288T378 264T391 217Q391 177 368 152T295 126Q247 126 223 148T190 208L32 171Q54 76 122 32T286 -12Q338 -12 384 1T465 40T520 107T541 200Q541 231 532 259T506
309T465 346T408 365V368Q467 380 498 422T529 523Q529 574 510 611T457 672T381 708T290 720Q245 720 205 711T131 681T74 629T38 550L203 516Q210 544 233 563T291 582Q328 582 353 561T379 508Q379 483 369 468T343 444T306 432T265 429H216V299Z" />
<glyph unicode="4" glyph-name="four" horiz-adv-x="592" d="M333 0H477V142H568V268H477V708H313L24 268V142H333V0ZM333 268H174L331 512H333V510V268Z" />
<glyph unicode="5" glyph-name="five" horiz-adv-x="592" d="M517 708H89L81 317Q116 329 153 336T228 343Q257 343 286 338T338 320T376 284T391 226Q391 180 363 150T286 120Q247 120 221 143T189 205L32 169Q55 78 117 33T271 -12Q329 -12 378 5T464 54T520
134T541 241Q541 295 523 338T473 412T395 459T296 475Q256 475 233 467L236 576H517V708Z" />
<glyph unicode="6" glyph-name="six" horiz-adv-x="592" d="M453 708H270L115 466Q98 439 83 414T56 360T37 301T30 231Q30 176 50 132T106 55T190 6T294 -12Q349 -12 397 5T481 55T537 131T558 231Q558 279 542 321T497 395T427 444T336 462Q323 462 311 460T287
455L453 708ZM408 237Q408 189 377 158T294 126Q243 126 212 157T180 237Q180 285 211 316T294 348Q345 348 376 317T408 237Z" />
<glyph unicode="7" glyph-name="seven" horiz-adv-x="592" d="M97 0H272L555 576V708H37V570H387L97 0Z" />
<glyph unicode="8" glyph-name="eight" horiz-adv-x="592" d="M59 525Q59 467 90 426T179 368V366Q115 349 81 305T47 194Q47 143 67 104T122 40T202 1T296 -12Q345 -12 390 1T469 39T524 104T545 194Q545 260 511 304T413 366V368Q470 385 501 426T533 525Q533
574 514 610T463 671T388 708T296 720Q247 720 204 708T129 672T78 611T59 525ZM209 504Q209 536 233 559T296 582Q335 582 359 559T383 504Q383 471 359 448T296 425Q257 425 233 448T209 504ZM197 215Q197 253 224 279T296 305Q341 305 368 279T395 215Q395 178
368 152T296 126Q251 126 224 152T197 215Z" />
<glyph unicode="9" glyph-name="nine" horiz-adv-x="592" d="M139 0H322L477 242Q494 269 509 294T536 348T555 407T562 477Q562 532 542 576T486 653T402 702T298 720Q242 720 194 703T111 653T55 577T34 477Q34 429 50 387T95 313T165 264T256 246Q269 246 281
248T305 253L139 0ZM184 471Q184 519 215 550T298 582Q349 582 380 551T412 471Q412 423 381 392T298 360Q247 360 216 391T184 471Z" />
<glyph unicode=":" glyph-name="colon" horiz-adv-x="296" d="M56 86Q56 67 63 50T82 21T112 1T148 -6Q167 -6 184 1T213 20T233 50T240 86Q240 105 233 122T214 151T184 171T148 178Q129 178 112 171T83 152T63 122T56 86ZM56 406Q56 387 63 370T82 341T112 321T148
314Q167 314 184 321T213 340T233 370T240 406Q240 425 233 442T214 471T184 491T148 498Q129 498 112 491T83 472T63 442T56 406Z" />
<glyph unicode=";" glyph-name="semicolon" horiz-adv-x="296" d="M17 -120H145L235 162H91L17 -120ZM56 406Q56 387 63 370T82 341T112 321T148 314Q167 314 184 321T213 340T233 370T240 406Q240 425 233 442T214 471T184 491T148 498Q129 498 112 491T83 472T63
442T56 406Z" />
<glyph unicode="&lt;" glyph-name="less" horiz-adv-x="666" d="M586 564L80 366V240L586 42V178L269 302V304L586 428V564Z" />
<glyph unicode="=" glyph-name="equal" horiz-adv-x="666" d="M59 336H607V462H59V336ZM59 144H607V270H59V144Z" />
<glyph unicode="&gt;" glyph-name="greater" horiz-adv-x="666" d="M80 42L586 240V366L80 564V428L397 304V302L80 178V42Z" />
<glyph unicode="?" glyph-name="question" horiz-adv-x="556" d="M216 234H366V263Q366 280 374 297T405 332Q441 360 464 383T502 430T523 476T529 529Q529 577 511 614T462 676T391 713T304 726Q199 726 132 671T54 509L208 499Q211 536 235 562T307 588Q338
588 358 570T379 518Q379 501 370 486T343 453T303 415T251 368Q232 350 224 329T216 278V234ZM199 86Q199 67 206 50T225 21T255 1T291 -6Q310 -6 327 1T356 20T376 50T383 86Q383 105 376 122T357 151T327 171T291 178Q272 178 255 171T226 152T206 122T199 86Z"
/>
<glyph unicode="@" glyph-name="at" horiz-adv-x="800" d="M475 364Q475 343 471 322T454 283T422 254T370 243Q349 243 336 251T315 271T304 300T301 332Q301 384 328 420T401 456Q439 456 457 430T475 364ZM605 534H511L503 489H501Q486 520 460 533T393 546Q346
546 309 528T247 478T207 406T193 321Q193 284 203 253T233 200T278 166T337 153Q385 153 415 170T465 207H467Q468 187 486 170T546 153Q561 153 583 156T630 169T679 195T723 239T755 305T768 397Q768 476 738 537T657 641T544 704T414 726Q335 726 266 698T144
619T62 501T32 353Q32 272 62 204T146 86T269 10T420 -18Q512 -18 592 20T727 133H617Q580 104 533 88T428 72Q365 72 311 91T218 147T156 235T134 353Q134 414 154 466T210 556T298 615T411 636Q468 636 516 621T598 574T652 498T672 392Q672 353 665 325T645
279T618 252T586 243Q570 243 565 251T559 271Q559 285 562 304T568 337L605 534Z" />
<glyph unicode="A" glyph-name="A" horiz-adv-x="741" d="M-1 0H171L230 150H505L566 0H742L434 708H305L-1 0ZM452 282H279L365 502L452 282Z" />
<glyph unicode="B" glyph-name="B" horiz-adv-x="648" d="M72 0H362Q409 0 456 10T542 43T604 103T628 197Q628 231 617 261T586 313T537 350T473 370V372Q528 389 561 428T595 528Q595 586 572 621T512 675T429 701T336 708H72V0ZM228 576H334Q352 576 371 573T405
561T429 539T439 502Q439 481 431 466T408 442T377 429T341 425H228V576ZM228 293H346Q365 293 387 290T428 279T459 256T472 215Q472 192 463 176T438 150T405 136T368 132H228V293Z" />
<glyph unicode="C" glyph-name="C" horiz-adv-x="685" d="M655 622Q632 651 603 671T543 703T479 720T416 726Q333 726 263 700T142 626T63 508T34 354Q34 269 62 200T142 83T263 8T416 -18Q489 -18 558 12T672 105L542 202Q518 166 481 146T396 126Q354 126 318
143T254 190T212 262T196 354Q196 403 211 445T254 517T319 565T401 582Q445 582 478 567T535 524L655 622Z" />
<glyph unicode="D" glyph-name="D" horiz-adv-x="759" d="M72 0H327Q406 0 478 23T605 90T692 200T725 352Q725 449 692 517T601 627T468 689T306 708H72V0ZM228 564H320Q369 564 413 552T491 514T543 451T563 360Q563 300 544 259T490 192T410 155T309 144H228V564Z" />
<glyph unicode="E" glyph-name="E" horiz-adv-x="630" d="M78 0H577V144H234V288H541V432H234V564H559V708H78V0Z" />
<glyph unicode="F" glyph-name="F" horiz-adv-x="593" d="M78 0H234V276H529V420H234V564H553V708H78V0Z" />
<glyph unicode="G" glyph-name="G" horiz-adv-x="778" d="M713 420H436V276H563V161Q541 149 504 138T416 126Q366 126 326 143T256 190T212 262T196 354Q196 403 211 445T256 517T325 565T416 582Q476 582 516 565T588 515L698 635Q644 685 573 705T416 726Q333
726 263 700T142 626T63 508T34 354Q34 269 62 200T142 83T263 8T416 -18Q494 -18 569 -2T713 50V420Z" />
<glyph unicode="H" glyph-name="H" horiz-adv-x="759" d="M72 0H228V306H531V0H687V708H531V444H228V708H72V0Z" />
<glyph unicode="I" glyph-name="I" horiz-adv-x="296" d="M70 0H226V708H70V0Z" />
<glyph unicode="J" glyph-name="J" horiz-adv-x="500" d="M438 708H282V254Q282 234 281 211T272 167T250 134T208 120Q182 120 162 138T138 182L-5 147Q12 62 70 22T212 -18Q284 -18 328 3T397 60T429 142T438 237V708Z" />
<glyph unicode="K" glyph-name="K" horiz-adv-x="722" d="M78 0H234V336L522 0H740L398 379L713 708H509L234 414V708H78V0Z" />
<glyph unicode="L" glyph-name="L" horiz-adv-x="537" d="M78 0H523V144H234V708H78V0Z" />
<glyph unicode="M" glyph-name="M" horiz-adv-x="944" d="M72 0H228V543H230L409 0H528L714 543H716V0H872V708H637L473 246H471L308 708H72V0Z" />
<glyph unicode="N" glyph-name="N" horiz-adv-x="815" d="M72 0H228V504H230L539 0H743V708H587V216H585L284 708H72V0Z" />
<glyph unicode="O" glyph-name="O" horiz-adv-x="832" d="M34 354Q34 269 62 200T142 83T263 8T416 -18Q499 -18 569 8T690 82T769 200T798 354Q798 439 770 508T690 625T569 700T416 726Q333 726 263 700T142 626T63 508T34 354ZM196 354Q196 403 211 445T256
517T325 565T416 582Q466 582 506 565T576 518T620 445T636 354Q636 304 621 263T576 191T507 143T416 126Q366 126 326 143T256 190T212 262T196 354Z" />
<glyph unicode="P" glyph-name="P" horiz-adv-x="630" d="M72 0H228V276H342Q398 276 446 286T529 322T584 389T604 493Q604 556 583 597T525 663T439 698T335 708H72V0ZM228 576H308Q330 576 354 574T397 562T429 537T442 493Q442 468 433 452T408 426T373 412T332
408H228V576Z" />
<glyph unicode="Q" glyph-name="Q" horiz-adv-x="852" d="M847 120H649V122Q685 138 712 163T756 221T781 289T790 363Q790 443 761 509T680 624T560 699T412 726Q333 726 264 700T144 625T64 510T34 363Q34 277 63 210T143 96T264 25T418 0H847V120ZM196 363Q196
409 213 449T259 518T328 565T412 582Q457 582 496 565T564 519T611 449T628 363Q628 317 611 277T565 208T496 161T412 144Q367 144 328 161T260 207T213 277T196 363Z" />
<glyph unicode="R" glyph-name="R" horiz-adv-x="648" d="M72 0H228V283H305L453 0H640L460 299Q535 313 574 365T613 493Q613 555 592 596T534 662T449 697T346 708H72V0ZM228 576H330Q351 576 373 573T412 562T440 537T451 494Q451 465 439 449T407 426T365
417T320 415H228V576Z" />
<glyph unicode="S" glyph-name="S" horiz-adv-x="574" d="M529 652Q484 692 428 709T312 726Q260 726 211 712T125 668T65 596T42 496Q42 437 66 401T128 343T208 308T288 282T349 251T374 200Q374 181 365 167T340 144T305 131T266 126Q227 126 191 143T130 193L19
71Q70 24 129 3T257 -18Q312 -18 361 -4T448 39T508 112T530 215Q530 277 506 314T446 373T367 407T289 431T228 460T204 509Q204 529 214 543T240 565T274 578T309 582Q338 582 370 571T422 535L529 652Z" />
<glyph unicode="T" glyph-name="T" horiz-adv-x="574" d="M209 0H365V570H567V708H7V570H209V0Z" />
<glyph unicode="U" glyph-name="U" horiz-adv-x="741" d="M669 708H513V279Q513 246 503 218T473 170T428 138T371 126Q340 126 314 137T268 169T239 218T228 279V708H72V273Q72 210 91 157T147 65T241 4T371 -18Q444 -18 500 4T593 65T650 157T669 273V708Z" />
<glyph unicode="V" glyph-name="V" horiz-adv-x="704" d="M285 0H410L702 708H535L357 244H355L180 708H2L285 0Z" />
<glyph unicode="W" glyph-name="W" horiz-adv-x="1000" d="M208 0H342L498 490H500L656 0H795L1002 708H844L725 242H723L576 708H431L283 254H281L168 708H-2L208 0Z" />
<glyph unicode="X" glyph-name="X" horiz-adv-x="722" d="M0 0H185L353 285L526 0H722L466 373L695 708H506L361 460L210 708H14L248 370L0 0Z" />
<glyph unicode="Y" glyph-name="Y" horiz-adv-x="648" d="M246 0H402V302L668 708H483L324 443L174 708H-20L246 302V0Z" />
<glyph unicode="Z" glyph-name="Z" horiz-adv-x="630" d="M35 0H595V144H231L583 570V708H48V570H394L35 144V0Z" />
<glyph unicode="[" glyph-name="bracketleft" horiz-adv-x="296" d="M276 732H66V-156H276V-66H186V642H276V732Z" />
<glyph unicode="\" glyph-name="backslash" horiz-adv-x="407" d="M410 -18L111 761L-3 726L297 -53L410 -18Z" />
<glyph unicode="]" glyph-name="bracketright" horiz-adv-x="296" d="M20 -156H230V732H20V642H110V288V-66H20V-156Z" />
<glyph unicode="^" glyph-name="asciicircum" horiz-adv-x="666" d="M80 343H221L333 581L444 343H586L406 708H260L80 343Z" />
<glyph unicode="_" glyph-name="underscore" horiz-adv-x="500" d="M500 -125V-75H0V-125H500Z" />
<glyph unicode="`" glyph-name="grave" horiz-adv-x="260" d="M131 708H-73L100 564H232L131 708Z" />
<glyph unicode="a" glyph-name="a" horiz-adv-x="537" d="M358 0H496V247Q496 308 486 354T451 433T383 481T274 498Q214 498 158 479T60 420L140 338Q164 365 194 380T262 396Q301 396 329 373T358 309Q327 309 291 308T218 302T147 287T87 257T45 209T29 138Q29
101 43 73T81 26T136 -2T202 -12Q248 -12 289 5T356 61H358V0ZM358 213V181Q358 158 349 141T323 113T287 96T244 90Q219 90 196 103T173 143Q173 168 189 182T229 203T278 211T321 213H358Z" />
<glyph unicode="b" glyph-name="b" horiz-adv-x="630" d="M67 0H205V64H207Q216 51 230 38T264 13T307 -5T356 -12Q410 -12 454 6T529 58T578 138T595 239Q595 290 580 336T536 419T466 476T373 498Q326 498 286 484T219 434H217V756H67V0ZM205 243Q205 298 236
332T325 366Q382 366 413 332T445 243Q445 188 414 154T325 120Q268 120 237 154T205 243Z" />
<glyph unicode="c" glyph-name="c" horiz-adv-x="482" d="M481 433Q446 469 399 483T308 498Q252 498 203 480T117 429T59 348T38 243Q38 185 59 138T116 58T202 6T308 -12Q351 -12 398 2T481 53L382 157Q369 142 351 131T308 120Q251 120 220 154T188 243Q188
298 219 332T308 366Q331 366 351 356T382 329L481 433Z" />
<glyph unicode="d" glyph-name="d" horiz-adv-x="630" d="M563 756H413V434H411Q385 469 345 483T257 498Q205 498 164 477T95 419T51 337T35 239Q35 184 52 138T100 59T176 7T274 -12Q299 -12 322 -5T365 13T399 37T423 64H425V0H563V756ZM425 243Q425 188 394
154T305 120Q248 120 217 154T185 243Q185 298 216 332T305 366Q362 366 393 332T425 243Z" />
<glyph unicode="e" glyph-name="e" horiz-adv-x="574" d="M408 161Q389 135 364 119T301 102Q257 102 227 127T188 196H536V243Q536 301 520 348T475 428T403 480T308 498Q252 498 203 480T117 429T59 348T38 243Q38 185 59 138T116 58T202 6T308 -12Q367 -12
422 13T513 84L408 161ZM188 298Q189 316 196 332T217 361T250 382T294 390Q335 390 361 363T386 298H188Z" />
<glyph unicode="f" glyph-name="f" horiz-adv-x="370" d="M105 0H255V366H366V486H255V563Q255 611 273 626T327 642Q341 642 352 640T376 632L383 759Q362 764 340 766T295 768Q234 768 197 753T139 710T112 648T105 572V486H6V366H105V0Z" />
<glyph unicode="g" glyph-name="g" horiz-adv-x="630" d="M563 486H425V422H423Q414 435 399 448T363 473T316 491T257 498Q205 498 164 477T95 420T51 339T35 245Q35 190 52 144T100 65T176 13T274 -6Q308 -6 346 8T411 58H413V11Q413 -41 381 -74T279 -108Q233
-108 195 -91T121 -45L38 -169Q91 -211 154 -225T282 -240Q424 -240 493 -169T563 41V486ZM185 246Q185 270 194 291T219 329T257 356T305 366Q330 366 352 356T390 330T416 292T425 246Q425 222 416 201T391 163T352 136T305 126Q279 126 258 136T220 162T194
200T185 246Z" />
<glyph unicode="h" glyph-name="h" horiz-adv-x="574" d="M53 756V0H203V242Q203 266 206 288T218 327T246 355T293 366Q322 366 337 354T360 323T369 282T371 238V0H521V268Q521 317 514 359T488 432T433 480T341 498Q314 498 291 491T251 473T222 448T205 420H203V756H53Z"
/>
<glyph unicode="i" glyph-name="i" horiz-adv-x="260" d="M55 0H205V486H55V0ZM43 639Q43 603 68 578T130 552Q166 552 191 577T217 639Q217 675 192 700T130 726Q94 726 69 701T43 639Z" />
<glyph unicode="j" glyph-name="j" horiz-adv-x="260" d="M205 486H55V-10Q55 -24 54 -41T48 -73T32 -98T2 -108Q-19 -108 -37 -99L-45 -232Q-28 -237 -10 -238T25 -240Q76 -240 110 -226T166 -185T196 -121T205 -36V486ZM43 639Q43 603 68 578T130 552Q166 552
191 577T217 639Q217 675 192 700T130 726Q94 726 69 701T43 639Z" />
<glyph unicode="k" glyph-name="k" horiz-adv-x="556" d="M53 0H203V246H205L369 0H558L360 267L553 486H369L203 294V756H53V0Z" />
<glyph unicode="l" glyph-name="l" horiz-adv-x="260" d="M55 0H205V756H55V0Z" />
<glyph unicode="m" glyph-name="m" horiz-adv-x="870" d="M53 0H203V242Q203 266 206 288T218 327T246 355T293 366Q319 366 332 354T352 325T359 289T360 257V0H510V257Q510 279 514 299T529 334T557 357T601 366Q638 366 652 342T667 283V0H817V287Q817 331
809 369T781 436T728 481T645 498Q591 498 554 478T491 411Q471 456 432 477T341 498Q314 498 291 491T250 473T219 448T199 420H197V486H53V0Z" />
<glyph unicode="n" glyph-name="n" horiz-adv-x="574" d="M53 0H203V242Q203 266 206 288T218 327T246 355T293 366Q322 366 337 354T360 323T369 282T371 238V0H521V268Q521 317 514 359T488 432T433 480T341 498Q314 498 291 491T250 473T219 448T199 420H197V486H53V0Z"
/>
<glyph unicode="o" glyph-name="o" horiz-adv-x="610" d="M35 243Q35 185 56 138T113 58T199 6T305 -12Q361 -12 410 6T496 57T554 138T575 243Q575 301 554 348T497 428T411 480T305 498Q249 498 200 480T114 429T56 348T35 243ZM185 243Q185 298 216 332T305
366Q362 366 393 332T425 243Q425 188 394 154T305 120Q248 120 217 154T185 243Z" />
<glyph unicode="p" glyph-name="p" horiz-adv-x="630" d="M67 -228H217V52H219Q245 17 285 3T373 -12Q425 -12 466 9T535 67T579 149T595 247Q595 302 578 348T530 427T454 479T356 498Q330 498 307 491T265 473T231 449T207 422H205V486H67V-228ZM205 243Q205
298 236 332T325 366Q382 366 413 332T445 243Q445 188 414 154T325 120Q268 120 237 154T205 243Z" />
<glyph unicode="q" glyph-name="q" horiz-adv-x="630" d="M563 486H425V422H423Q414 435 400 448T366 473T323 491T274 498Q220 498 176 480T101 428T52 348T35 247Q35 196 50 150T94 67T164 10T257 -12Q304 -12 344 2T411 52H413V-228H563V486ZM425 243Q425 188
394 154T305 120Q248 120 217 154T185 243Q185 298 216 332T305 366Q362 366 393 332T425 243Z" />
<glyph unicode="r" glyph-name="r" horiz-adv-x="407" d="M53 0H203V203Q203 239 207 269T224 320T263 354T331 366Q348 366 363 364T395 356V493Q384 496 371 497T345 498Q295 498 262 476T205 408H203V486H53V0Z" />
<glyph unicode="s" glyph-name="s" horiz-adv-x="463" d="M420 434Q386 470 337 484T240 498Q202 498 165 489T100 459T54 408T36 334Q36 288 54 261T101 218T162 196T223 182T270 166T289 137Q289 117 268 110T221 102Q187 102 162 115T115 155L24 54Q60 17 112
3T215 -12Q254 -12 294 -5T366 21T418 70T439 148Q439 194 421 221T374 265T313 288T252 302T205 317T186 344Q186 366 204 375T241 384Q295 384 328 343L420 434Z" />
<glyph unicode="t" glyph-name="t" horiz-adv-x="407" d="M384 486H252V630H102V486H6V366H102V135Q102 95 115 67T153 22T209 -4T279 -12Q305 -12 332 -9T384 3V128Q374 119 355 117T323 114Q299 114 285 120T263 139T254 167T252 204V366H384V486Z" />
<glyph unicode="u" glyph-name="u" horiz-adv-x="574" d="M521 486H371V244Q371 220 368 198T356 159T328 131T281 120Q252 120 237 132T214 163T205 204T203 248V486H53V218Q53 169 59 127T85 54T140 6T233 -12Q260 -12 283 -5T324 13T354 38T375 66H377V0H521V486Z" />
<glyph unicode="v" glyph-name="v" horiz-adv-x="556" d="M203 0H362L554 486H403L289 156H287L164 486H2L203 0Z" />
<glyph unicode="w" glyph-name="w" horiz-adv-x="833" d="M173 0H324L414 323H416L517 0H665L838 486H686L595 181H593L503 486H339L256 181H254L155 486H-5L173 0Z" />
<glyph unicode="x" glyph-name="x" horiz-adv-x="556" d="M-8 0H167L281 162L387 0H564L377 260L535 486H368L285 354L199 486H22L184 260L-8 0Z" />
<glyph unicode="y" glyph-name="y" horiz-adv-x="556" d="M553 486H399L292 165H290L165 486H3L216 -4L205 -32Q197 -52 190 -67T173 -92T146 -108T105 -114Q69 -114 35 -99L15 -222Q69 -240 127 -240Q181 -240 214 -230T268 -199T304 -148T333 -79L553 486Z" />
<glyph unicode="z" glyph-name="z" horiz-adv-x="500" d="M34 0H466V120H196L460 342V486H40V366H286L34 150V0Z" />
<glyph unicode="{" glyph-name="braceleft" horiz-adv-x="370" d="M356 -42H307Q284 -42 271 -36T252 -21T244 0T242 22V184Q242 219 232 239T208 269T176 283T142 287V289Q158 290 175 293T207 307T232 338T242 393V554Q242 564 243 575T251 596T271 612T307
618H356V732H251Q223 732 200 724T159 699T132 654T122 587V414Q122 391 109 377T77 356T41 347T14 345V231Q23 231 41 229T77 220T108 199T122 162V-10Q122 -49 132 -76T159 -122T200 -148T251 -156H356V-42Z" />
<glyph unicode="|" glyph-name="bar" horiz-adv-x="222" d="M48 -18H174V756H48V-18Z" />
<glyph unicode="}" glyph-name="braceright" horiz-adv-x="370" d="M14 618H63Q86 618 99 612T118 597T126 576T128 554V392Q128 357 138 337T162 307T194 293T228 289V287Q212 285 195 282T163 269T138 238T128 183V22Q128 12 127 1T119 -20T99 -36T63 -42H14V-156H119Q147
-156 170 -148T211 -123T238 -78T248 -11V162Q248 185 261 199T291 220T327 229T356 231V345Q345 345 327 347T292 356T261 377T248 414V586Q248 625 238 652T211 698T170 724T122 732H14V618Z" />
<glyph unicode="~" glyph-name="asciitilde" horiz-adv-x="666" d="M528 400Q519 388 510 376T491 355T468 339T440 332Q420 332 393 344T338 368Q309 381 281 390T227 400Q202 400 183 393T148 373T122 346T102 314L138 206Q147 218 156 230T175 251T198 267T226
274Q246 274 273 262T328 238Q357 225 385 216T439 206Q464 206 483 213T518 233T544 260T564 292L528 400Z" />
</font>
</defs>
</svg>
